<?xml version="1.0" encoding="UTF-8"?>
<svg version="1.1" xmlns="http://www.w3.org/2000/svg" width="260" height="280">
<path d="M0 0 C85.8 0 171.6 0 260 0 C260 92.4 260 184.8 260 280 C174.2 280 88.4 280 0 280 C0 187.6 0 95.2 0 0 Z " fill="#51CA00" transform="translate(0,0)"/>
<path d="M0 0 C0.81146484 -0.01998047 1.62292969 -0.03996094 2.45898438 -0.06054688 C6.33960705 -0.05736343 8.41056542 -0.02986863 11.62890625 2.27734375 C13.0625 4.4375 13.0625 4.4375 13.0625 7.4375 C13.93986816 7.41131592 14.81723633 7.38513184 15.72119141 7.3581543 C18.99772757 7.27259091 22.27306558 7.21009133 25.55029297 7.1628418 C26.96454682 7.13780075 28.37867257 7.10375658 29.79248047 7.06030273 C31.83333002 6.99917792 33.87246006 6.97119013 35.9140625 6.94921875 C37.13947754 6.92303467 38.36489258 6.89685059 39.62744141 6.86987305 C43.11011001 7.44536733 45.14806832 8.31555487 47.79682922 10.65586567 C50.49563897 14.45487263 49.88055863 19.18332652 49.82299805 23.66601562 C49.83190567 24.79988205 49.84081329 25.93374847 49.84999084 27.10197449 C49.87130007 30.84981836 49.84894976 34.59594795 49.82421875 38.34375 C49.82572081 40.94779639 49.82914993 43.55184232 49.83442688 46.15588379 C49.84076248 51.61339872 49.82252435 57.07042058 49.78979492 62.52783203 C49.75230135 68.83164089 49.75407997 75.13451581 49.7768361 81.43837404 C49.7978066 87.50988658 49.79040506 93.58099948 49.77051735 99.6525116 C49.76466391 102.23291912 49.7659752 104.8133531 49.77454185 107.39375305 C49.78252546 110.99943 49.75830994 114.60348034 49.7253418 118.20898438 C49.73816696 119.81129158 49.73816696 119.81129158 49.75125122 121.44596863 C49.6790238 126.01866392 49.54295506 128.68033935 47.05647278 132.59884644 C43.17837125 134.98045967 39.91673095 135.14060826 35.49609375 135.08447266 C34.64508087 135.09323425 33.79406799 135.10199585 32.91726685 135.11102295 C30.11098887 135.13298625 27.30629331 135.11847551 24.5 135.1015625 C22.54613951 135.10493153 20.59228106 135.10978487 18.63842773 135.11605835 C14.54618347 135.12342551 10.45448539 135.11272913 6.36230469 135.08935547 C1.11956814 135.06086786 -4.12188864 135.07727266 -9.36457825 135.10721779 C-13.39841333 135.12529494 -17.43194553 135.1195308 -21.46578979 135.10657883 C-23.39867301 135.10324597 -25.33158383 135.10732766 -27.26443481 135.11897659 C-29.96739417 135.13169223 -32.66828807 135.11229937 -35.37109375 135.08447266 C-36.16812714 135.09459381 -36.96516052 135.10471497 -37.78634644 135.11514282 C-41.48218065 135.04473544 -43.77182613 134.5395819 -46.9324646 132.59211731 C-49.91116244 127.90559069 -49.63664483 123.76669579 -49.58447266 118.31665039 C-49.59323425 117.19414383 -49.60199585 116.07163727 -49.61102295 114.91511536 C-49.63302826 111.2047357 -49.61845765 107.49554803 -49.6015625 103.78515625 C-49.6049305 101.2059252 -49.60978299 98.6266957 -49.61605835 96.04747009 C-49.6234315 90.64126008 -49.6131876 85.23549767 -49.58935547 79.8293457 C-49.56215866 73.58805671 -49.5709496 67.34758479 -49.5984875 61.10631567 C-49.6239553 55.09249065 -49.62120373 49.0790638 -49.60657883 43.06518364 C-49.60324403 40.51071495 -49.60733441 37.95622541 -49.61897659 35.40178108 C-49.631682 31.82987467 -49.6123084 28.259534 -49.58447266 24.68774414 C-49.59459381 23.63248535 -49.60471497 22.57722656 -49.61514282 21.48999023 C-49.5490994 16.91320453 -49.49189277 13.47837956 -46.61039734 9.77693176 C-43.12591504 6.72716683 -41.25255728 6.73836278 -36.66796875 6.8515625 C-35.98696609 6.86005219 -35.30596344 6.86854187 -34.60432434 6.87728882 C-32.44289515 6.91070698 -30.2852881 6.98594014 -28.125 7.0625 C-26.65435102 7.09261568 -25.18364316 7.11998871 -23.71289062 7.14453125 C-20.11986532 7.21045263 -16.52905606 7.31388277 -12.9375 7.4375 C-12.834375 6.839375 -12.73125 6.24125 -12.625 5.625 C-10.60761879 -0.7939402 -5.73771113 -0.04989314 0 0 Z " fill="#55C808" transform="translate(129.9375,62.5625)"/>
<path d="M0 0 C85.8 0 171.6 0 260 0 C260 6.6 260 13.2 260 20 C174.2 20 88.4 20 0 20 C0 13.4 0 6.8 0 0 Z " fill="#F7F8F7" transform="translate(0,260)"/>
<path d="M0 0 C0.81146484 -0.01998047 1.62292969 -0.03996094 2.45898438 -0.06054688 C6.33960705 -0.05736343 8.41056542 -0.02986863 11.62890625 2.27734375 C13.0625 4.4375 13.0625 4.4375 13.0625 7.4375 C13.93986816 7.41131592 14.81723633 7.38513184 15.72119141 7.3581543 C18.99772757 7.27259091 22.27306558 7.21009133 25.55029297 7.1628418 C26.96454682 7.13780075 28.37867257 7.10375658 29.79248047 7.06030273 C31.83333002 6.99917792 33.87246006 6.97119013 35.9140625 6.94921875 C37.13947754 6.92303467 38.36489258 6.89685059 39.62744141 6.86987305 C43.11011001 7.44536733 45.14806832 8.31555487 47.79682922 10.65586567 C50.49563897 14.45487263 49.88055863 19.18332652 49.82299805 23.66601562 C49.83190567 24.79988205 49.84081329 25.93374847 49.84999084 27.10197449 C49.87130007 30.84981836 49.84894976 34.59594795 49.82421875 38.34375 C49.82572081 40.94779639 49.82914993 43.55184232 49.83442688 46.15588379 C49.84076248 51.61339872 49.82252435 57.07042058 49.78979492 62.52783203 C49.75230135 68.83164089 49.75407997 75.13451581 49.7768361 81.43837404 C49.7978066 87.50988658 49.79040506 93.58099948 49.77051735 99.6525116 C49.76466391 102.23291912 49.7659752 104.8133531 49.77454185 107.39375305 C49.78252546 110.99943 49.75830994 114.60348034 49.7253418 118.20898438 C49.73816696 119.81129158 49.73816696 119.81129158 49.75125122 121.44596863 C49.6790238 126.01866392 49.54295506 128.68033935 47.05647278 132.59884644 C43.17837125 134.98045967 39.91673095 135.14060826 35.49609375 135.08447266 C34.64508087 135.09323425 33.79406799 135.10199585 32.91726685 135.11102295 C30.11098887 135.13298625 27.30629331 135.11847551 24.5 135.1015625 C22.54613951 135.10493153 20.59228106 135.10978487 18.63842773 135.11605835 C14.54618347 135.12342551 10.45448539 135.11272913 6.36230469 135.08935547 C1.11956814 135.06086786 -4.12188864 135.07727266 -9.36457825 135.10721779 C-13.39841333 135.12529494 -17.43194553 135.1195308 -21.46578979 135.10657883 C-23.39867301 135.10324597 -25.33158383 135.10732766 -27.26443481 135.11897659 C-29.96739417 135.13169223 -32.66828807 135.11229937 -35.37109375 135.08447266 C-36.16812714 135.09459381 -36.96516052 135.10471497 -37.78634644 135.11514282 C-41.48218065 135.04473544 -43.77182613 134.5395819 -46.9324646 132.59211731 C-49.91116244 127.90559069 -49.63664483 123.76669579 -49.58447266 118.31665039 C-49.59323425 117.19414383 -49.60199585 116.07163727 -49.61102295 114.91511536 C-49.63302826 111.2047357 -49.61845765 107.49554803 -49.6015625 103.78515625 C-49.6049305 101.2059252 -49.60978299 98.6266957 -49.61605835 96.04747009 C-49.6234315 90.64126008 -49.6131876 85.23549767 -49.58935547 79.8293457 C-49.56215866 73.58805671 -49.5709496 67.34758479 -49.5984875 61.10631567 C-49.6239553 55.09249065 -49.62120373 49.0790638 -49.60657883 43.06518364 C-49.60324403 40.51071495 -49.60733441 37.95622541 -49.61897659 35.40178108 C-49.631682 31.82987467 -49.6123084 28.259534 -49.58447266 24.68774414 C-49.59459381 23.63248535 -49.60471497 22.57722656 -49.61514282 21.48999023 C-49.5490994 16.91320453 -49.49189277 13.47837956 -46.61039734 9.77693176 C-43.12591504 6.72716683 -41.25255728 6.73836278 -36.66796875 6.8515625 C-35.98696609 6.86005219 -35.30596344 6.86854187 -34.60432434 6.87728882 C-32.44289515 6.91070698 -30.2852881 6.98594014 -28.125 7.0625 C-26.65435102 7.09261568 -25.18364316 7.11998871 -23.71289062 7.14453125 C-20.11986532 7.21045263 -16.52905606 7.31388277 -12.9375 7.4375 C-12.834375 6.839375 -12.73125 6.24125 -12.625 5.625 C-10.60761879 -0.7939402 -5.73771113 -0.04989314 0 0 Z M-39.9375 17.4375 C-41.08030185 19.7231037 -41.0725528 21.01377008 -41.09140015 23.55464172 C-41.10000061 24.41682312 -41.10860107 25.27900452 -41.11746216 26.16731262 C-41.12172211 27.11539291 -41.12598206 28.06347321 -41.13037109 29.0402832 C-41.13854858 30.03716156 -41.14672607 31.03403992 -41.15515137 32.06112671 C-41.18002651 35.37017205 -41.19652611 38.67917446 -41.2109375 41.98828125 C-41.21626118 43.11656027 -41.22158485 44.24483929 -41.22706985 45.40730858 C-41.25380959 51.3782216 -41.2731826 57.34911365 -41.28759766 63.32006836 C-41.30425498 69.49424715 -41.34904006 75.66789315 -41.3999691 81.84187031 C-41.43358691 86.58333465 -41.4451691 91.32467164 -41.45082474 96.06624413 C-41.45755142 98.34247094 -41.47280997 100.61868897 -41.49671555 102.89480019 C-41.52825408 106.07915601 -41.52842052 109.26206288 -41.52099609 112.4465332 C-41.53740143 113.3885408 -41.55380676 114.3305484 -41.57070923 115.30110168 C-41.52902511 119.66390446 -41.34581079 121.83582223 -38.84463501 125.52149963 C-35.24361949 127.89481461 -33.13746456 128.07082755 -28.83984375 128.08447266 C-27.79741013 128.09761505 -27.79741013 128.09761505 -26.73391724 128.11102295 C-24.44696788 128.13294945 -22.16196744 128.118491 -19.875 128.1015625 C-18.27986278 128.10493265 -16.68472806 128.10978692 -15.08959961 128.11605835 C-11.75056448 128.12342043 -8.41219928 128.11274651 -5.07324219 128.08935547 C-0.798952 128.06086698 3.47376847 128.07727468 7.7480011 128.10721779 C11.04068776 128.12530939 14.33300391 128.11952444 17.6257019 128.10657883 C19.20132637 128.10324991 20.77698477 128.10731386 22.35256958 128.11897659 C24.55756354 128.13171745 26.760037 128.11226957 28.96484375 128.08447266 C30.21773193 128.08049469 31.47062012 128.07651672 32.76147461 128.07241821 C37.1551529 127.22733948 38.54543064 126.1389497 41.0625 122.4375 C41.76966617 119.11105379 41.73582971 115.8689695 41.69360352 112.47827148 C41.70075882 111.47934875 41.70791412 110.48042603 41.71528625 109.45123291 C41.73217895 106.1532197 41.71276772 102.85656453 41.69140625 99.55859375 C41.69223482 97.26603584 41.69469377 94.97347799 41.69871521 92.68092346 C41.70157353 87.87832743 41.68686678 83.07619769 41.65942383 78.27368164 C41.62532238 72.11404408 41.63136565 65.95523935 41.6500864 59.79556179 C41.66064782 55.06265811 41.65172658 50.32994868 41.63670158 45.59706306 C41.63151434 43.32563923 41.63200812 41.05419516 41.63824654 38.78277397 C41.64368894 35.61051575 41.62335445 32.43945573 41.59594727 29.26733398 C41.60247314 28.32644424 41.60899902 27.3855545 41.61572266 26.41615295 C41.58893629 21.28123619 41.58893629 21.28123619 39.15415955 16.88563538 C35.3153491 14.22788105 32.71635586 14.35131748 28.0625 14.4375 C28.04268066 15.15405762 28.02286133 15.87061523 28.00244141 16.60888672 C27.90740481 19.8438063 27.79763981 23.07806094 27.6875 26.3125 C27.6565625 27.44042969 27.625625 28.56835938 27.59375 29.73046875 C27.55507812 30.80683594 27.51640625 31.88320312 27.4765625 32.9921875 C27.42943115 34.48468018 27.42943115 34.48468018 27.38134766 36.00732422 C27.0625 38.4375 27.0625 38.4375 25.0625 40.4375 C22.93725586 40.69146729 22.93725586 40.69146729 20.27734375 40.69628906 C19.2829126 40.70259338 18.28848145 40.70889771 17.26391602 40.71539307 C16.18682373 40.7113446 15.10973145 40.70729614 14 40.703125 C12.897771 40.70503845 11.79554199 40.7069519 10.65991211 40.70892334 C8.32633232 40.71028612 5.99274497 40.70658322 3.65917969 40.69824219 C0.07730153 40.68754421 -3.50407503 40.69813458 -7.0859375 40.7109375 C-9.34895945 40.70961592 -11.61198108 40.70705357 -13.875 40.703125 C-14.95209229 40.70717346 -16.02918457 40.71122192 -17.13891602 40.71539307 C-18.13334717 40.70908875 -19.12777832 40.70278442 -20.15234375 40.69628906 C-21.03011475 40.69469788 -21.90788574 40.69310669 -22.81225586 40.69146729 C-24.9375 40.4375 -24.9375 40.4375 -26.9375 38.4375 C-27.25634766 36.00732422 -27.25634766 36.00732422 -27.3515625 32.9921875 C-27.39023438 31.91582031 -27.42890625 30.83945313 -27.46875 29.73046875 C-27.4996875 28.60253906 -27.530625 27.47460938 -27.5625 26.3125 C-27.60117188 25.17683594 -27.63984375 24.04117188 -27.6796875 22.87109375 C-27.77417601 20.06006044 -27.85973541 17.24903767 -27.9375 14.4375 C-32.95683592 14.30758778 -35.86537723 14.32352377 -39.9375 17.4375 Z " fill="#F3FDEB" transform="translate(129.9375,62.5625)"/>
<path d="M0 0 C2.39041198 2.39041198 2.25071873 2.88418964 2.25396729 6.1373291 C2.25960693 7.00384598 2.26524658 7.87036285 2.27105713 8.76313782 C2.26700867 9.71593124 2.26296021 10.66872467 2.25878906 11.65039062 C2.2622937 12.65208786 2.26579834 13.6537851 2.26940918 14.68583679 C2.27823871 18.00937758 2.27237299 21.3327069 2.265625 24.65625 C2.2669713 26.95788616 2.26891153 29.25952204 2.27142334 31.56115723 C2.27437626 36.38992006 2.27007153 41.21860902 2.26074219 46.04736328 C2.24934761 52.24855683 2.25590618 58.44957727 2.26788712 64.65076447 C2.27510116 69.40498162 2.27281988 74.15915748 2.26763153 78.91337585 C2.26629377 81.20041423 2.26794714 83.48745631 2.27259064 85.77449036 C2.27764836 88.96629827 2.26995617 92.15782267 2.25878906 95.34960938 C2.26283752 96.3024028 2.26688599 97.25519623 2.27105713 98.23686218 C2.26541748 99.10337906 2.25977783 99.96989594 2.25396729 100.8626709 C2.25321323 101.61778709 2.25245918 102.37290329 2.25168228 103.15090179 C2 105 2 105 0 107 C-0.33 101.39 -0.66 95.78 -1 90 C-7.59955848 92.46562269 -7.59955848 92.46562269 -11.0625 97.125 C-13.07090602 100.01475441 -13.72484504 100.88207644 -17.0625 102.3125 C-20 102 -20 102 -22.875 99.9375 C-25.34590611 96.52183568 -25.61326587 95.11764227 -25 91 C-24.64292969 90.3709375 -24.28585938 89.741875 -23.91796875 89.09375 C-22.76338168 86.46030885 -23.10732437 85.2967521 -23.875 82.5625 C-25.5452422 75.80410275 -25.5452422 75.80410275 -25 73 C-22.43879574 69.95424358 -20.79480342 68.26493447 -17 67 C-17.94875 66.773125 -18.8975 66.54625 -19.875 66.3125 C-23 65 -23 65 -24.4375 62.8125 C-25.15499103 59.22504486 -24.8695002 56.54488544 -24 53 C-20.31282562 50.54188375 -18.35654296 50.68881836 -14 51 C-13.01 51.66 -12.02 52.32 -11 53 C-10.4225 52.34 -9.845 51.68 -9.25 51 C-7 49 -7 49 -3 49 C-2.67 50.32 -2.34 51.64 -2 53 C0.20631138 51.21046916 0.20631138 51.21046916 0.24050903 48.82333374 C0.23606781 47.92176544 0.23162659 47.02019714 0.22705078 46.09130859 C0.22689972 45.07040131 0.22674866 44.04949402 0.22659302 42.99765015 C0.21627045 41.89240997 0.20594788 40.7871698 0.1953125 39.6484375 C0.1924826 38.5192691 0.18965271 37.39010071 0.18673706 36.22671509 C0.17551462 32.60937029 0.15040622 28.99227034 0.125 25.375 C0.11497287 22.9270869 0.10584656 20.47916993 0.09765625 18.03125 C0.07556857 12.02074936 0.04207074 6.01039217 0 0 Z " fill="#57C50E" transform="translate(169,80)"/>
<path d="M0 0 C13.86 0 27.72 0 42 0 C42 5.28 42 10.56 42 16 C38.6939397 19.3060603 37.71384047 19.35743306 33.24829102 19.4168396 C32.48572998 19.41076691 31.72316895 19.40469421 30.9375 19.3984375 C29.75595337 19.40274277 29.75595337 19.40274277 28.55053711 19.40713501 C26.88622315 19.40917522 25.22188519 19.40364832 23.55761719 19.39111328 C21.00922053 19.37505809 18.46240979 19.39096244 15.9140625 19.41015625 C14.2968715 19.40817381 12.67968148 19.40433011 11.0625 19.3984375 C9.91865845 19.40754654 9.91865845 19.40754654 8.75170898 19.4168396 C4.28615953 19.35743306 3.3060603 19.3060603 0 16 C0 10.72 0 5.44 0 0 Z " fill="#50CB00" transform="translate(109,77)"/>
<path d="M0 0 C0.99 0.495 0.99 0.495 2 1 C2.11683393 16.16844268 2.20498839 31.3368646 2.25906086 46.50565624 C2.28483581 53.54892715 2.31997213 60.59191838 2.37719727 67.63500977 C2.43238137 74.43013984 2.4614101 81.22497896 2.47438622 88.02031898 C2.48363525 90.61473481 2.50169617 93.20913446 2.52865028 95.80342674 C2.56486944 99.43334902 2.56994803 103.0620652 2.56762695 106.69213867 C2.58560333 107.7681987 2.60357971 108.84425873 2.62210083 109.95292664 C2.590224 114.55047666 2.49106311 117.22134244 0.00190735 121.16828918 C-3.89357563 123.54524406 -7.16622708 123.68869527 -11.59814453 123.61523438 C-12.45237 123.62078339 -13.30659546 123.6263324 -14.18670654 123.63204956 C-17.00265057 123.64383493 -19.81698172 123.61958647 -22.6328125 123.59375 C-24.59146043 123.59203884 -26.55011066 123.59210463 -28.50875854 123.59387207 C-32.60941537 123.59221958 -36.709525 123.57353124 -40.81005859 123.54199219 C-46.07068383 123.50226245 -51.33059418 123.4979534 -56.59134102 123.50545502 C-60.63364228 123.50852131 -64.67578226 123.49641722 -68.71804428 123.47932434 C-70.65815088 123.47228593 -72.59827575 123.46917082 -74.53839493 123.47001648 C-77.24614914 123.46822261 -79.95303936 123.44687805 -82.66064453 123.41992188 C-83.46486847 123.42285248 -84.26909241 123.42578308 -85.09768677 123.42880249 C-90.54314004 123.34498166 -90.54314004 123.34498166 -93.02120972 121.47375488 C-93.34421051 120.98741577 -93.6672113 120.50107666 -94 120 C-92.78031021 120.24398781 -92.78031021 120.24398781 -91.53598022 120.49290466 C-87.4792973 121.07467403 -83.5112688 121.13230111 -79.42431641 121.11352539 C-78.58463318 121.11367142 -77.74494995 121.11381744 -76.87982178 121.1139679 C-74.12037521 121.11327445 -71.36099719 121.10550874 -68.6015625 121.09765625 C-66.68199704 121.09579005 -64.7624311 121.0943671 -62.84286499 121.09336853 C-57.8024564 121.08955925 -52.76207684 121.07974257 -47.72167969 121.06866455 C-42.5735717 121.05841623 -37.42545901 121.05386359 -32.27734375 121.04882812 C-22.18488311 121.03811884 -12.09244397 121.02106154 -2 121 C-1.12012064 117.96182846 -0.86550507 115.23581746 -0.84178162 112.07720947 C-0.8319928 111.08725479 -0.82220398 110.09730011 -0.81211853 109.0773468 C-0.80636307 107.9976915 -0.8006076 106.91803619 -0.79467773 105.80566406 C-0.78477814 104.6639122 -0.77487854 103.52216034 -0.76467896 102.34580994 C-0.73307266 98.56910277 -0.70830982 94.79238303 -0.68359375 91.015625 C-0.66302348 88.39816967 -0.64202699 85.78071767 -0.62062073 83.16326904 C-0.57074104 76.97625794 -0.52578473 70.78922126 -0.48259836 64.60216022 C-0.43318557 57.55743116 -0.37828245 50.51274824 -0.32291877 43.46806383 C-0.20917127 28.97875292 -0.10231653 14.48939608 0 0 Z " fill="#E2FEC6" transform="translate(177,74)"/>
<path d="M0 0 C1.51815699 0.00015911 3.0363194 0.00585313 4.55444336 0.01586914 C5.35208603 0.01728409 6.1497287 0.01869904 6.97154236 0.02015686 C9.52916146 0.02577223 12.08669429 0.03832727 14.64428711 0.05102539 C16.37410356 0.05603841 18.10392137 0.06060166 19.83374023 0.06469727 C24.08312264 0.07574664 28.33244023 0.09302153 32.58178711 0.11352539 C32.96397478 1.76967196 33.29573813 3.43809563 33.58178711 5.11352539 C32.58178711 6.11352539 32.58178711 6.11352539 29.16357422 6.22705078 C27.64541723 6.22689167 26.12725482 6.22119765 24.60913086 6.21118164 C23.81148819 6.20976669 23.01384552 6.20835175 22.19203186 6.20689392 C19.63441276 6.20127856 17.07687993 6.18872351 14.51928711 6.17602539 C12.78947066 6.17101237 11.05965285 6.16644912 9.32983398 6.16235352 C5.08045158 6.15130414 0.83113399 6.13402925 -3.41821289 6.11352539 C-3.80040056 4.45737882 -4.13216391 2.78895515 -4.41821289 1.11352539 C-3.41821289 0.11352539 -3.41821289 0.11352539 0 0 Z " fill="#FBFEF7" transform="translate(98.418212890625,169.886474609375)"/>
<path d="M0 0 C1.51815699 0.00015911 3.0363194 0.00585313 4.55444336 0.01586914 C5.35208603 0.01728409 6.1497287 0.01869904 6.97154236 0.02015686 C9.52916146 0.02577223 12.08669429 0.03832727 14.64428711 0.05102539 C16.37410356 0.05603841 18.10392137 0.06060166 19.83374023 0.06469727 C24.08312264 0.07574664 28.33244023 0.09302153 32.58178711 0.11352539 C32.96397478 1.76967196 33.29573813 3.43809563 33.58178711 5.11352539 C32.58178711 6.11352539 32.58178711 6.11352539 29.16357422 6.22705078 C27.64541723 6.22689167 26.12725482 6.22119765 24.60913086 6.21118164 C23.81148819 6.20976669 23.01384552 6.20835175 22.19203186 6.20689392 C19.63441276 6.20127856 17.07687993 6.18872351 14.51928711 6.17602539 C12.78947066 6.17101237 11.05965285 6.16644912 9.32983398 6.16235352 C5.08045158 6.15130414 0.83113399 6.13402925 -3.41821289 6.11352539 C-3.80040056 4.45737882 -4.13216391 2.78895515 -4.41821289 1.11352539 C-3.41821289 0.11352539 -3.41821289 0.11352539 0 0 Z " fill="#E8FCD7" transform="translate(98.418212890625,152.886474609375)"/>
<path d="M0 0 C1.51815699 0.00015911 3.0363194 0.00585313 4.55444336 0.01586914 C5.35208603 0.01728409 6.1497287 0.01869904 6.97154236 0.02015686 C9.52916146 0.02577223 12.08669429 0.03832727 14.64428711 0.05102539 C16.37410356 0.05603841 18.10392137 0.06060166 19.83374023 0.06469727 C24.08312264 0.07574664 28.33244023 0.09302153 32.58178711 0.11352539 C32.96397478 1.76967196 33.29573813 3.43809563 33.58178711 5.11352539 C32.58178711 6.11352539 32.58178711 6.11352539 29.16357422 6.22705078 C27.64541723 6.22689167 26.12725482 6.22119765 24.60913086 6.21118164 C23.81148819 6.20976669 23.01384552 6.20835175 22.19203186 6.20689392 C19.63441276 6.20127856 17.07687993 6.18872351 14.51928711 6.17602539 C12.78947066 6.17101237 11.05965285 6.16644912 9.32983398 6.16235352 C5.08045158 6.15130414 0.83113399 6.13402925 -3.41821289 6.11352539 C-3.80040056 4.45737882 -4.13216391 2.78895515 -4.41821289 1.11352539 C-3.41821289 0.11352539 -3.41821289 0.11352539 0 0 Z " fill="#D7FBBA" transform="translate(98.418212890625,134.886474609375)"/>
<path d="M0 0 C1.51815699 0.00015911 3.0363194 0.00585313 4.55444336 0.01586914 C5.35208603 0.01728409 6.1497287 0.01869904 6.97154236 0.02015686 C9.52916146 0.02577223 12.08669429 0.03832727 14.64428711 0.05102539 C16.37410356 0.05603841 18.10392137 0.06060166 19.83374023 0.06469727 C24.08312264 0.07574664 28.33244023 0.09302153 32.58178711 0.11352539 C32.96397478 1.76967196 33.29573813 3.43809563 33.58178711 5.11352539 C32.58178711 6.11352539 32.58178711 6.11352539 29.16357422 6.22705078 C27.64541723 6.22689167 26.12725482 6.22119765 24.60913086 6.21118164 C23.81148819 6.20976669 23.01384552 6.20835175 22.19203186 6.20689392 C19.63441276 6.20127856 17.07687993 6.18872351 14.51928711 6.17602539 C12.78947066 6.17101237 11.05965285 6.16644912 9.32983398 6.16235352 C5.08045158 6.15130414 0.83113399 6.13402925 -3.41821289 6.11352539 C-3.80040056 4.45737882 -4.13216391 2.78895515 -4.41821289 1.11352539 C-3.41821289 0.11352539 -3.41821289 0.11352539 0 0 Z " fill="#FBFEF5" transform="translate(98.418212890625,117.886474609375)"/>
<path d="M0 0 C0.99 0.33 1.98 0.66 3 1 C2.41327739 5.04934787 0.32366733 7.53697349 -2.1875 10.6875 C-2.94417969 11.66074219 -3.70085937 12.63398438 -4.48046875 13.63671875 C-7.41702589 16.39116382 -9.00700823 16.94582101 -13 17 C-16.40406682 14.55795207 -17.7998726 13.08958249 -18.5625 8.9375 C-17.86463014 5.29306849 -17.05623277 4.09110663 -14 2 C-10.03414842 1.50426855 -7.40424088 1.90508254 -4 4 C-2.68 2.68 -1.36 1.36 0 0 Z " fill="#C6F4A4" transform="translate(162,165)"/>
<path d="M0 0 C1.32 0 2.64 0 4 0 C3.38910214 3.95673847 1.41059799 6.50716475 -0.9375 9.6875 C-1.64777344 10.66074219 -2.35804688 11.63398437 -3.08984375 12.63671875 C-5.42445528 15.52514406 -6.21528721 15.89764616 -9.875 16.375 C-13 16 -13 16 -15.4375 13.9375 C-17.48562148 10.08703161 -17.22685696 8.14064223 -16 4 C-14.3125 2 -14.3125 2 -12 1 C-8.12273569 1.23738353 -6.25923117 1.82717922 -3 4 C-2.5875 3.34 -2.175 2.68 -1.75 2 C-0.88375 1.01 -0.88375 1.01 0 0 Z " fill="#CDFBA4" transform="translate(161,111)"/>
<path d="M0 0 C0.99 0.33 1.98 0.66 3 1 C2.52460544 5.278551 -0.02565329 7.09647107 -3 10 C-4.01656081 11.65661761 -5.02065076 13.32111559 -6 15 C-8.87470493 16.43735246 -10.81894588 16.38172649 -14 16 C-16.4375 13.9375 -16.4375 13.9375 -18 11 C-17.9375 7.3125 -17.9375 7.3125 -17 4 C-13.31282562 1.54188375 -11.35654296 1.68881836 -7 2 C-6.01 2.66 -5.02 3.32 -4 4 C-2.68 2.68 -1.36 1.36 0 0 Z " fill="#EBFDDE" transform="translate(162,129)"/>
<path d="M0 0 C0.99 0.33 1.98 0.66 3 1 C2.57692525 4.66664788 0.72584825 6.77490495 -1.68359375 9.47265625 C-3.18990057 11.15183728 -3.18990057 11.15183728 -4.875 13.875 C-7 16 -7 16 -10.5 16.625 C-14 16 -14 16 -16.4375 13.8125 C-18.13487153 10.75723125 -18.70005835 9.41278446 -18 6 C-16.375 3.6875 -16.375 3.6875 -14 2 C-10.03414842 1.50426855 -7.40424088 1.90508254 -4 4 C-2.68 2.68 -1.36 1.36 0 0 Z " fill="#D3FBB0" transform="translate(162,147)"/>
<path d="M0 0 C13.86 0 27.72 0 42 0 C42 5.28 42 10.56 42 16 C41.01 16.495 41.01 16.495 40 17 C40 12.05 40 7.1 40 2 C27.46 2 14.92 2 2 2 C1.3962827 10.23230364 1.3962827 10.23230364 4 17 C6.59153107 17.15996166 9.1595202 17.25938697 11.75390625 17.31640625 C12.52935287 17.33718735 13.3047995 17.35796844 14.10374451 17.37937927 C16.58990308 17.44495802 19.07617045 17.50379799 21.5625 17.5625 C23.24415204 17.60567733 24.92579294 17.64929136 26.60742188 17.69335938 C30.73816871 17.80064779 34.86902536 17.90189132 39 18 C39 18.33 39 18.66 39 19 C33.92801112 19.07413521 28.85633732 19.12859451 23.78393555 19.16479492 C22.05829373 19.17988516 20.33269028 19.20035975 18.60717773 19.22631836 C16.12734512 19.26269209 13.64801936 19.27972359 11.16796875 19.29296875 C10.01001045 19.31619453 10.01001045 19.31619453 8.82865906 19.33988953 C6.64526367 19.34057617 6.64526367 19.34057617 3 19 C2.01 18.01 1.02 17.02 0 16 C0 10.72 0 5.44 0 0 Z " fill="#6CC337" transform="translate(109,77)"/>
<path d="M0 0 C-0.33 0.99 -0.66 1.98 -1 3 C-30.04 3 -59.08 3 -89 3 C-89 2.34 -89 1.68 -89 1 C-77.69115158 0.86948141 -66.38230175 0.73908575 -55.07345009 0.60884857 C-49.82272904 0.54837531 -44.5720085 0.48785914 -39.32128906 0.42724609 C-34.25739022 0.36879122 -29.19349011 0.3104475 -24.12958908 0.25218201 C-22.19422739 0.22989388 -20.25886616 0.20756518 -18.3235054 0.18519592 C-15.62013111 0.15395664 -12.91675523 0.12285948 -10.21337891 0.09179688 C-9.40705521 0.08244614 -8.60073151 0.0730954 -7.76997375 0.0634613 C-2.22810432 0 -2.22810432 0 0 0 Z " fill="#6EC438" transform="translate(176,196)"/>
<path d="M0 0 C0.33 0 0.66 0 1 0 C1.086985 3.77068832 1.14038579 7.54111932 1.1875 11.3125 C1.21263672 12.38435547 1.23777344 13.45621094 1.26367188 14.56054688 C1.27333984 15.58857422 1.28300781 16.61660156 1.29296875 17.67578125 C1.3086792 18.62364502 1.32438965 19.57150879 1.34057617 20.5480957 C0.92738316 23.52278922 0.35522723 24.19681435 -2 26 C-4.25895691 26.36076355 -4.25895691 26.36076355 -6.93041992 26.34057617 C-8.43163643 26.34023628 -8.43163643 26.34023628 -9.96318054 26.33988953 C-11.04138565 26.32440567 -12.11959076 26.30892181 -13.23046875 26.29296875 C-14.33602615 26.28872391 -15.44158356 26.28447906 -16.5806427 26.28010559 C-20.11650812 26.26329437 -23.65180645 26.22563685 -27.1875 26.1875 C-29.58267407 26.17245636 -31.97785706 26.1587674 -34.37304688 26.14648438 C-40.24889185 26.11338285 -46.12440542 26.06315893 -52 26 C-52 25.67 -52 25.34 -52 25 C-41.38946677 24.06260327 -30.77226456 23.70779011 -20.12792969 23.39282227 C-18.38624512 23.33759399 -18.38624512 23.33759399 -16.609375 23.28125 C-15.57780273 23.25095703 -14.54623047 23.22066406 -13.48339844 23.18945312 C-8.97813637 22.94442345 -4.48952861 22.44895286 0 22 C0 14.74 0 7.48 0 0 Z " fill="#E3FCD2" transform="translate(157,78)"/>
<path d="M0 0 C0 0.99 0 1.98 0 3 C-3.8734021 6.11801782 -7.03707385 6.37533447 -11.91015625 6.36328125 C-13.88918945 6.36231445 -13.88918945 6.36231445 -15.90820312 6.36132812 C-16.93119507 6.34888062 -16.93119507 6.34888062 -17.97485352 6.33618164 C-20.0597994 6.31253063 -22.14346905 6.31563552 -24.22851562 6.32226562 C-35.36524812 6.26236144 -35.36524812 6.26236144 -39 4 C-38.67 3.34 -38.34 2.68 -38 2 C-36.91992676 2.01047363 -35.83985352 2.02094727 -34.72705078 2.03173828 C-30.72773541 2.06788194 -26.72843454 2.09087984 -22.72900391 2.10986328 C-20.99655735 2.11993376 -19.26412784 2.13359089 -17.53173828 2.15087891 C-15.04455361 2.17508162 -12.55759325 2.18647239 -10.0703125 2.1953125 C-8.90461227 2.21079636 -8.90461227 2.21079636 -7.71536255 2.22659302 C-5.80874507 2.22699271 -3.90268964 2.1223214 -2 2 C-1.34 1.34 -0.68 0.68 0 0 Z " fill="#E2F8D1" transform="translate(150,93)"/>
<path d="M0 0 C11.55 0 23.1 0 35 0 C35.495 1.485 35.495 1.485 36 3 C24.12 3 12.24 3 0 3 C0 2.01 0 1.02 0 0 Z " fill="#FEFEFE" transform="translate(96,137)"/>
<path d="M0 0 C0.99 0.33 1.98 0.66 3 1 C2.41749095 5.07756336 0.27922063 7.58428676 -2.25 10.75 C-3.01828125 11.73484375 -3.7865625 12.7196875 -4.578125 13.734375 C-7 16 -7 16 -9.796875 16.328125 C-10.52390625 16.21984375 -11.2509375 16.1115625 -12 16 C-11.01 15.67 -10.02 15.34 -9 15 C-9 14.34 -9 13.68 -9 13 C-9.639375 12.7525 -10.27875 12.505 -10.9375 12.25 C-13 11 -13 11 -13.75 8.875 C-13.8325 8.25625 -13.915 7.6375 -14 7 C-11.69 7.33 -9.38 7.66 -7 8 C-6.67 7.01 -6.34 6.02 -6 5 C-3.125 2.25 -3.125 2.25 0 0 Z " fill="#EEFEE0" transform="translate(162,165)"/>
<path d="M0 0 C2.3541936 -0.03195618 4.7046613 -0.05371223 7.05908203 -0.03344727 C8.28304687 -0.06341797 8.28304687 -0.06341797 9.53173828 -0.09399414 C13.42640271 -0.09081742 15.52328982 -0.06894595 18.75439453 2.24389648 C20.18408203 4.40405273 20.18408203 4.40405273 20.18408203 7.40405273 C30.08408203 7.40405273 39.98408203 7.40405273 50.18408203 7.40405273 C50.18408203 7.73405273 50.18408203 8.06405273 50.18408203 8.40405273 C45.82423742 8.52768501 41.46532148 8.61840181 37.10424805 8.67871094 C35.62099436 8.70385083 34.1378645 8.73796866 32.6550293 8.78125 C30.52247608 8.84193531 28.39155998 8.87026389 26.25830078 8.89233398 C24.33377075 8.93161011 24.33377075 8.93161011 22.37036133 8.97167969 C19.18408203 8.40405273 19.18408203 8.40405273 17.36962891 5.91772461 C16.97839844 5.08821289 16.58716797 4.25870117 16.18408203 3.40405273 C14.16281279 2.59768464 14.16281279 2.59768464 11.99658203 2.59155273 C10.10939453 2.49874023 10.10939453 2.49874023 8.18408203 2.40405273 C8.18408203 3.06405273 8.18408203 3.72405273 8.18408203 4.40405273 C8.84408203 4.73405273 9.50408203 5.06405273 10.18408203 5.40405273 C9.19408203 6.88905273 9.19408203 6.88905273 8.18408203 8.40405273 C6.86408203 8.40405273 5.54408203 8.40405273 4.18408203 8.40405273 C4.18408203 7.41405273 4.18408203 6.42405273 4.18408203 5.40405273 C4.84408203 5.40405273 5.50408203 5.40405273 6.18408203 5.40405273 C6.18408203 4.41405273 6.18408203 3.42405273 6.18408203 2.40405273 C2.88408203 2.73405273 -0.41591797 3.06405273 -3.81591797 3.40405273 C-1.81591797 0.40405273 -1.81591797 0.40405273 0 0 Z " fill="#E7FED4" transform="translate(122.81591796875,62.595947265625)"/>
<path d="M0 0 C0.66 0.99 1.32 1.98 2 3 C1.01 4.485 1.01 4.485 0 6 C-2.38564077 5.42415568 -4.66682784 4.77772405 -7 4 C-5.68106748 7.95679755 -4.03418212 10.16809669 -1 13 C-1 13.33 -1 13.66 -1 14 C-3.75 14.3125 -3.75 14.3125 -7 14 C-9.4375 11.9375 -9.4375 11.9375 -11 9 C-10.9375 5.3125 -10.9375 5.3125 -10 2 C-6.32003497 -0.45331002 -4.34586828 -0.39507893 0 0 Z " fill="#CFFAAB" transform="translate(155,131)"/>
<path d="M0 0 C1.32 0 2.64 0 4 0 C3.41827275 3.9520518 1.44842259 6.22095053 -1.0625 9.25 C-1.79597656 10.14203125 -2.52945313 11.0340625 -3.28515625 11.953125 C-3.85105469 12.62859375 -4.41695312 13.3040625 -5 14 C-8.33561571 13.25018723 -10.49457375 12.41594674 -13 10 C-13 8.68 -13 7.36 -13 6 C-11.453125 6.4640625 -11.453125 6.4640625 -9.875 6.9375 C-6.10840159 7.43778335 -6.10840159 7.43778335 -4.33984375 5.5078125 C-3.33465663 4.2275486 -2.37145014 2.91300006 -1.45703125 1.56640625 C-0.97621094 1.04949219 -0.49539062 0.53257813 0 0 Z " fill="#F0FEE3" transform="translate(161,111)"/>
<path d="M0 0 C0.99 0.33 1.98 0.66 3 1 C2.49935858 5.33889229 -0.21726171 7.81003171 -3 11 C-3.99 12.485 -3.99 12.485 -5 14 C-6.32 14 -7.64 14 -9 14 C-9 13.34 -9 12.68 -9 12 C-10.32 11.67 -11.64 11.34 -13 11 C-13.33 9.68 -13.66 8.36 -14 7 C-11.69 7.33 -9.38 7.66 -7 8 C-6.67 7.01 -6.34 6.02 -6 5 C-3.125 2.25 -3.125 2.25 0 0 Z " fill="#EAFED8" transform="translate(162,147)"/>
<path d="M0 0 C1.51815699 0.00015911 3.0363194 0.00585313 4.55444336 0.01586914 C5.35208603 0.01728409 6.1497287 0.01869904 6.97154236 0.02015686 C9.52916146 0.02577223 12.08669429 0.03832727 14.64428711 0.05102539 C16.37410356 0.05603841 18.10392137 0.06060166 19.83374023 0.06469727 C24.08312264 0.07574664 28.33244023 0.09302153 32.58178711 0.11352539 C32.58178711 0.44352539 32.58178711 0.77352539 32.58178711 1.11352539 C21.36178711 1.44352539 10.14178711 1.77352539 -1.41821289 2.11352539 C-1.41821289 3.10352539 -1.41821289 4.09352539 -1.41821289 5.11352539 C15.90678711 4.61852539 15.90678711 4.61852539 33.58178711 4.11352539 C33.25178711 4.77352539 32.92178711 5.43352539 32.58178711 6.11352539 C20.70178711 6.11352539 8.82178711 6.11352539 -3.41821289 6.11352539 C-3.74821289 4.46352539 -4.07821289 2.81352539 -4.41821289 1.11352539 C-3.41821289 0.11352539 -3.41821289 0.11352539 0 0 Z " fill="#DCFCC6" transform="translate(98.418212890625,169.886474609375)"/>
<path d="M0 0 C1.51815699 0.00015911 3.0363194 0.00585313 4.55444336 0.01586914 C5.35208603 0.01728409 6.1497287 0.01869904 6.97154236 0.02015686 C9.52916146 0.02577223 12.08669429 0.03832727 14.64428711 0.05102539 C16.37410356 0.05603841 18.10392137 0.06060166 19.83374023 0.06469727 C24.08312264 0.07574664 28.33244023 0.09302153 32.58178711 0.11352539 C32.58178711 0.44352539 32.58178711 0.77352539 32.58178711 1.11352539 C16.24678711 1.60852539 16.24678711 1.60852539 -0.41821289 2.11352539 C-0.74821289 3.10352539 -1.07821289 4.09352539 -1.41821289 5.11352539 C9.80178711 5.11352539 21.02178711 5.11352539 32.58178711 5.11352539 C32.58178711 5.44352539 32.58178711 5.77352539 32.58178711 6.11352539 C20.70178711 6.11352539 8.82178711 6.11352539 -3.41821289 6.11352539 C-3.74821289 4.46352539 -4.07821289 2.81352539 -4.41821289 1.11352539 C-3.41821289 0.11352539 -3.41821289 0.11352539 0 0 Z " fill="#DBF9C3" transform="translate(98.418212890625,117.886474609375)"/>
<path d="M0 0 C0.66 1.32 1.32 2.64 2 4 C2.66 3.67 3.32 3.34 4 3 C4 4.32 4 5.64 4 7 C4.99 7.66 5.98 8.32 7 9 C6.195625 8.814375 5.39125 8.62875 4.5625 8.4375 C3.716875 8.293125 2.87125 8.14875 2 8 C1.67 8.33 1.34 8.66 1 9 C-0.99954746 9.04254356 -3.00041636 9.04080783 -5 9 C-5.66 9 -6.32 9 -7 9 C-8.32 9 -9.64 9 -11 9 C-11.625 7.125 -11.625 7.125 -12 5 C-11.34 4.34 -10.68 3.68 -10 3 C-8.32995171 3.31595508 -6.66362417 3.65179959 -5 4 C-2.27497035 3.62277985 -2.27497035 3.62277985 0 3 C0 2.01 0 1.02 0 0 Z " fill="#969696" transform="translate(113,266)"/>
<path d="M0 0 C0.33 0.99 0.66 1.98 1 3 C2.98 3 4.96 3 7 3 C7 4.65 7 6.3 7 8 C7.66 8 8.32 8 9 8 C9 6.35 9 4.7 9 3 C9.99 3 10.98 3 12 3 C12.33 2.34 12.66 1.68 13 1 C13 1.66 13 2.32 13 3 C13.99 3 14.98 3 16 3 C16.33 2.34 16.66 1.68 17 1 C17 1.66 17 2.32 17 3 C17.66 3.33 18.32 3.66 19 4 C18.34 4 17.68 4 17 4 C17 5.32 17 6.64 17 8 C17.66 8.33 18.32 8.66 19 9 C18.01 9 17.02 9 16 9 C16 7.35 16 5.7 16 4 C15.01 4 14.02 4 13 4 C13 5.32 13 6.64 13 8 C13.66 8.33 14.32 8.66 15 9 C11.04 9 7.08 9 3 9 C3 7.35 3 5.7 3 4 C2.34 4 1.68 4 1 4 C1 5.65 1 7.3 1 9 C0.67 9 0.34 9 0 9 C0 6.03 0 3.06 0 0 Z " fill="#757575" transform="translate(63,266)"/>
<path d="M0 0 C1.77503906 0.03480469 1.77503906 0.03480469 3.5859375 0.0703125 C5.36871094 0.09738281 5.36871094 0.09738281 7.1875 0.125 C8.10273438 0.14820313 9.01796875 0.17140625 9.9609375 0.1953125 C8.9709375 0.6903125 8.9709375 0.6903125 7.9609375 1.1953125 C7.9609375 2.8453125 7.9609375 4.4953125 7.9609375 6.1953125 C4.0009375 6.1953125 0.0409375 6.1953125 -4.0390625 6.1953125 C-4.3690625 4.8753125 -4.6990625 3.5553125 -5.0390625 2.1953125 C-3.0390625 0.1953125 -3.0390625 0.1953125 0 0 Z " fill="#A6A6A6" transform="translate(126.0390625,268.8046875)"/>
<path d="M0 0 C0.99 0.33 1.98 0.66 3 1 C5.63804589 0.60602665 5.63804589 0.60602665 8 0 C9.08174162 3.36541838 8.92538169 4.29847322 8 8 C4.7 8 1.4 8 -2 8 C-1.34 7.67 -0.68 7.34 0 7 C-0.66 5.02 -1.32 3.04 -2 1 C-1.34 0.67 -0.68 0.34 0 0 Z " fill="#828282" transform="translate(195,267)"/>
<path d="M0 0 C1.1446875 0.2475 1.1446875 0.2475 2.3125 0.5 C5.00856207 1.00159294 6.44020291 0.8532657 9 0 C9.75 1.75 9.75 1.75 10 4 C8.0625 6.25 8.0625 6.25 6 8 C5.67 7.01 5.34 6.02 5 5 C4.01 6.485 4.01 6.485 3 8 C1.68 8 0.36 8 -1 8 C-1.04241723 5.66705225 -1.04092937 3.33297433 -1 1 C-0.67 0.67 -0.34 0.34 0 0 Z " fill="#878787" transform="translate(164,267)"/>
<path d="M0 0 C1.32 0.33 2.64 0.66 4 1 C2.93774414 3.45800781 2.93774414 3.45800781 1 6 C-2.15454102 6.64355469 -2.15454102 6.64355469 -6.00390625 6.671875 C-7.02254005 6.69099945 -7.02254005 6.69099945 -8.06175232 6.71051025 C-10.22909251 6.74682334 -12.39488229 6.74951922 -14.5625 6.75 C-16.73310943 6.77161244 -18.90348359 6.80007236 -21.07395935 6.83233643 C-23.0408029 6.85821575 -25.00785398 6.86653153 -26.97485352 6.87402344 C-29.92100222 6.78982951 -29.92100222 6.78982951 -32 8 C-32 7.01 -32 6.02 -32 5 C-21.77 5 -11.54 5 -1 5 C-0.67 3.35 -0.34 1.7 0 0 Z " fill="#5FC022" transform="translate(116,64)"/>
<path d="M0 0 C0.66 1.32 1.32 2.64 2 4 C-1.11257569 4 -3.10765685 3.82638376 -6 3 C-5.525625 3.78375 -5.05125 4.5675 -4.5625 5.375 C-3.66101977 6.88948678 -2.78820515 8.4235897 -2 10 C-6.875 9.125 -6.875 9.125 -8 8 C-8.29573841 5.19048514 -8.38243085 3.58371024 -6.8125 1.1875 C-4.44017475 -0.36678206 -2.77958655 -0.22537188 0 0 Z " fill="#76C747" transform="translate(154,169)"/>
<path d="M0 0 C0.66 1.32 1.32 2.64 2 4 C-1.11257569 4 -3.10765685 3.82638376 -6 3 C-5.525625 3.78375 -5.05125 4.5675 -4.5625 5.375 C-3.66101977 6.88948678 -2.78820515 8.4235897 -2 10 C-3.65 9.67 -5.3 9.34 -7 9 C-8.33157895 3.55263158 -8.33157895 3.55263158 -6.875 1.125 C-4.46277487 -0.32233508 -2.7648665 -0.22417836 0 0 Z " fill="#78C645" transform="translate(154,151)"/>
<path d="M0 0 C2.97 0 5.94 0 9 0 C8.01 0.495 8.01 0.495 7 1 C7 2.65 7 4.3 7 6 C4.69 6 2.38 6 0 6 C-1.125 2.25 -1.125 2.25 0 0 Z " fill="#ACACAC" transform="translate(83,269)"/>
<path d="M0 0 C0.99 0.103125 1.98 0.20625 3 0.3125 C3.66 1.3025 4.32 2.2925 5 3.3125 C2.39417629 4.24315133 1.35801776 4.46167407 -1.25 3.375 C-1.8275 3.024375 -2.405 2.67375 -3 2.3125 C-1.8141763 5.68753669 -0.72426311 7.95972731 2 10.3125 C-2.75 9.5625 -2.75 9.5625 -5 7.3125 C-5.25 4.8125 -5.25 4.8125 -5 2.3125 C-3 0.3125 -3 0.3125 0 0 Z " fill="#72BF41" transform="translate(151,114.6875)"/>
<path d="M0 0 C3 -0.375 3 -0.375 6 0 C6.66 0.99 7.32 1.98 8 3 C5.39417629 3.93065133 4.35801776 4.14917407 1.75 3.0625 C1.1725 2.711875 0.595 2.36125 0 2 C1.12451727 4.9719385 2.22293791 7.33440687 4 10 C2.35 9.67 0.7 9.34 -1 9 C-1.625 6.1875 -1.625 6.1875 -2 3 C-1.34 2.01 -0.68 1.02 0 0 Z " fill="#6EBD3D" transform="translate(148,133)"/>
<path d="M0 0 C0.99 0.33 1.98 0.66 3 1 C3 1.66 3 2.32 3 3 C-8.88 3 -20.76 3 -33 3 C-33 2.67 -33 2.34 -33 2 C-22.11 2 -11.22 2 0 2 C0 1.34 0 0.68 0 0 Z " fill="#F6FEEE" transform="translate(129,137)"/>
<path d="M0 0 C3.125 0.375 3.125 0.375 6 1 C6 2.32 6 3.64 6 5 C6.66 5.33 7.32 5.66 8 6 C7.443125 5.814375 6.88625 5.62875 6.3125 5.4375 C3.600867 4.92448835 1.65628961 5.3359276 -1 6 C-1.625 4.125 -1.625 4.125 -2 2 C-1.34 1.34 -0.68 0.68 0 0 Z " fill="#878787" transform="translate(103,269)"/>
<path d="M0 0 C1.485 0.99 1.485 0.99 3 2 C6.4103976 2.21314985 8.74531799 2.084894 12 1 C12 1.66 12 2.32 12 3 C11.34 3 10.68 3 10 3 C10 4.32 10 5.64 10 7 C11.65 7 13.3 7 15 7 C14.01 7.99 13.02 8.98 12 10 C11.01 9.34 10.02 8.68 9 8 C7.34450469 7.61500109 5.6777567 7.27206865 4 7 C4.99 6.34 5.98 5.68 7 5 C5.5459375 4.5978125 5.5459375 4.5978125 4.0625 4.1875 C3.051875 3.795625 2.04125 3.40375 1 3 C0.67 2.01 0.34 1.02 0 0 Z " fill="#68C52E" transform="translate(145,142)"/>
<path d="M0 0 C0.99 0.33 1.98 0.66 3 1 C2.60196439 3.88575819 2.20990931 4.82189513 -0.0625 6.75 C-0.701875 7.1625 -1.34125 7.575 -2 8 C-2 7.34 -2 6.68 -2 6 C-2.99 6 -3.98 6 -5 6 C-5.33 6.66 -5.66 7.32 -6 8 C-6 7.01 -6 6.02 -6 5 C-3.1875 2.25 -3.1875 2.25 0 0 Z " fill="#E6FED1" transform="translate(162,165)"/>
<path d="M0 0 C2.64 0.33 5.28 0.66 8 1 C8 1.99 8 2.98 8 4 C7.01 4.33 6.02 4.66 5 5 C4.67 5.66 4.34 6.32 4 7 C2 5.75 2 5.75 0 4 C0 2.68 0 1.36 0 0 Z " fill="#E3FBCF" transform="translate(148,117)"/>
<path d="M0 0 C0.33 0.66 0.66 1.32 1 2 C0.67 2.66 0.34 3.32 0 4 C-0.66 4 -1.32 4 -2 4 C-2 4.66 -2 5.32 -2 6 C-2.66 6 -3.32 6 -4 6 C-4 6.66 -4 7.32 -4 8 C-5.65 8 -7.3 8 -9 8 C-9 6.68 -9 5.36 -9 4 C-6.36 3.67 -3.72 3.34 -1 3 C-0.67 2.01 -0.34 1.02 0 0 Z " fill="#66C729" transform="translate(157,123)"/>
<path d="M0 0 C3.0625 0.3125 3.0625 0.3125 4.9375 1.8125 C5.30875 2.3075 5.68 2.8025 6.0625 3.3125 C3.0625 3.3125 3.0625 3.3125 0.6875 3.125 C-2.53418609 3.35512044 -4.30393642 4.50662783 -6.9375 6.3125 C-4.20018657 0.44682836 -4.20018657 0.44682836 0 0 Z " fill="#CFFAA6" transform="translate(150.9375,166.6875)"/>
<path d="M0 0 C2.64 0.33 5.28 0.66 8 1 C7.67 1.99 7.34 2.98 7 4 C6.01 4 5.02 4 4 4 C3.67 4.99 3.34 5.98 3 7 C1.5 5.75 1.5 5.75 0 4 C0 2.68 0 1.36 0 0 Z " fill="#DEF9C7" transform="translate(148,135)"/>
<path d="M0 0 C2.0625 0.4375 2.0625 0.4375 4 1 C3.6875 3.375 3.6875 3.375 3 6 C2.01 6.66 1.02 7.32 0 8 C-0.38063221 5.6739143 -0.71269945 3.33944736 -1 1 C-0.67 0.67 -0.34 0.34 0 0 Z " fill="#818181" transform="translate(158,267)"/>
<path d="M0 0 C0.33 0.66 0.66 1.32 1 2 C1.99 2 2.98 2 4 2 C4.33 1.34 4.66 0.68 5 0 C5 0.66 5 1.32 5 2 C5.66 2.33 6.32 2.66 7 3 C6.34 3 5.68 3 5 3 C5 4.32 5 5.64 5 7 C5.66 7.33 6.32 7.66 7 8 C6.01 8 5.02 8 4 8 C4 6.35 4 4.7 4 3 C3.01 3 2.02 3 1 3 C1 4.32 1 5.64 1 7 C1.66 7.33 2.32 7.66 3 8 C2.01 8 1.02 8 0 8 C-1.125 2.25 -1.125 2.25 0 0 Z " fill="#4D4D4D" transform="translate(75,267)"/>
<path d="M0 0 C0.99 0.33 1.98 0.66 3 1 C2.6875 2.875 2.6875 2.875 2 5 C1.01 5.66 0.02 6.32 -1 7 C-1 6.34 -1 5.68 -1 5 C-1.99 4.67 -2.98 4.34 -4 4 C-2.68 2.68 -1.36 1.36 0 0 Z " fill="#E2FDCD" transform="translate(162,129)"/>
<path d="M0 0 C1.2065625 0.0309375 1.2065625 0.0309375 2.4375 0.0625 C3.0975 1.3825 3.7575 2.7025 4.4375 4.0625 C0.16923127 4.0625 -0.50132432 3.68636487 -3.5625 1.0625 C-2.5625 0.0625 -2.5625 0.0625 0 0 Z " fill="#6ABE31" transform="translate(151.5625,168.9375)"/>
<path d="M0 0 C1.2065625 0.0309375 1.2065625 0.0309375 2.4375 0.0625 C3.0975 1.3825 3.7575 2.7025 4.4375 4.0625 C0.16923127 4.0625 -0.50132432 3.68636487 -3.5625 1.0625 C-2.5625 0.0625 -2.5625 0.0625 0 0 Z " fill="#6BBE34" transform="translate(151.5625,150.9375)"/>
<path d="M0 0 C3 0.1875 3 0.1875 6 1 C6.66 1.99 7.32 2.98 8 4 C4.38970831 4 1.44193324 3.03907418 -2 2 C-1.34 1.34 -0.68 0.68 0 0 Z " fill="#BEF395" transform="translate(149,112)"/>
<path d="M0 0 C2.64 0 5.28 0 8 0 C7.01 0.495 7.01 0.495 6 1 C6 2.65 6 4.3 6 6 C5.01 5.67 4.02 5.34 3 5 C2.67 4.01 2.34 3.02 2 2 C1.34 1.34 0.68 0.68 0 0 Z " fill="#777777" transform="translate(128,269)"/>
<path d="M0 0 C1.98 0 3.96 0 6 0 C6 1.65 6 3.3 6 5 C4.68 5 3.36 5 2 5 C2 4.34 2 3.68 2 3 C1.34 3 0.68 3 0 3 C0 2.01 0 1.02 0 0 Z " fill="#FAFEF2" transform="translate(151,156)"/>
<path d="M0 0 C1.32 0.33 2.64 0.66 4 1 C3.67 2.65 3.34 4.3 3 6 C2.01 6.33 1.02 6.66 0 7 C0 4.69 0 2.38 0 0 Z " fill="#ADADAD" transform="translate(200,267)"/>
<path d="M0 0 C1.98 0.495 1.98 0.495 4 1 C3.505 1.350625 3.01 1.70125 2.5 2.0625 C0.26936034 4.94374289 0.80019379 7.47009026 1 11 C0.34 11 -0.32 11 -1 11 C-1.0270043 9.54176788 -1.04639787 8.08339325 -1.0625 6.625 C-1.07410156 5.81289062 -1.08570313 5.00078125 -1.09765625 4.1640625 C-1 2 -1 2 0 0 Z " fill="#66C629" transform="translate(144,149)"/>
<path d="M0 0 C0.66 0 1.32 0 2 0 C2 0.99 2 1.98 2 3 C2.66 3.33 3.32 3.66 4 4 C2.68 4.99 1.36 5.98 0 7 C-0.66 6.01 -1.32 5.02 -2 4 C-1.34 2.68 -0.68 1.36 0 0 Z " fill="#63C61D" transform="translate(157,127)"/>
<path d="M0 0 C1.32 0 2.64 0 4 0 C4 0.99 4 1.98 4 3 C3.01 3 2.02 3 1 3 C1 3.66 1 4.32 1 5 C1.99 5.33 2.98 5.66 4 6 C2.68 6 1.36 6 0 6 C-1.125 2.25 -1.125 2.25 0 0 Z " fill="#686868" transform="translate(83,269)"/>
<path d="M0 0 C1.485 0.99 1.485 0.99 3 2 C4.65549531 2.38499891 6.3222433 2.72793135 8 3 C7.38125 3.2475 6.7625 3.495 6.125 3.75 C3.64931313 5.20628639 3.04874998 6.37812506 2 9 C0.55802132 6.11604263 0.41166419 3.17569521 0 0 Z " fill="#6FCC34" transform="translate(145,160)"/>
<path d="M0 0 C-0.33 0.99 -0.66 1.98 -1 3 C-2.98 3 -4.96 3 -7 3 C-6.67 2.01 -6.34 1.02 -6 0 C-3.42525708 -0.99667468 -2.51072708 -1.25536354 0 0 Z " fill="#5BC019" transform="translate(155,164)"/>
<path d="M0 0 C0.33 0 0.66 0 1 0 C1 1.98 1 3.96 1 6 C-0.32 6.33 -1.64 6.66 -3 7 C-3.33 5.68 -3.66 4.36 -4 3 C-2.68 3 -1.36 3 0 3 C0 2.01 0 1.02 0 0 Z " fill="#F7FEF3" transform="translate(156,118)"/>
<path d="M0 0 C0.99 0.33 1.98 0.66 3 1 C2.34 1.66 1.68 2.32 1 3 C0.60235737 4.98821313 0.26224651 6.98944339 0 9 C-0.66 8.67 -1.32 8.34 -2 8 C-1.125 1.125 -1.125 1.125 0 0 Z " fill="#DAFBB9" transform="translate(146,114)"/>
<path d="M0 0 C2.375 -0.1875 2.375 -0.1875 5 0 C5.66 0.99 6.32 1.98 7 3 C5.68 3.33 4.36 3.66 3 4 C2.01 2.68 1.02 1.36 0 0 Z " fill="#64BD2A" transform="translate(149,115)"/>
<path d="M0 0 C-0.99 1.485 -0.99 1.485 -2 3 C-3.32 3 -4.64 3 -6 3 C-6 2.01 -6 1.02 -6 0 C-3.50907189 -1.24546405 -2.58919267 -0.7767578 0 0 Z " fill="#B0DF97" transform="translate(133,68)"/>
<path d="M0 0 C0 0.99 0 1.98 0 3 C-0.66 3 -1.32 3 -2 3 C-2 3.66 -2 4.32 -2 5 C-2.99 4.67 -3.98 4.34 -5 4 C-5 3.01 -5 2.02 -5 1 C-2 0 -2 0 0 0 Z " fill="#F9FEF7" transform="translate(157,138)"/>
<path d="M0 0 C2.475 0.495 2.475 0.495 5 1 C5 1.99 5 2.98 5 4 C3.0625 3.6875 3.0625 3.6875 1 3 C0.67 2.01 0.34 1.02 0 0 Z " fill="#64BD29" transform="translate(150,133)"/>
<path d="M0 0 C1.32 0 2.64 0 4 0 C3.42655063 2.86724686 3.1385485 3.8614515 1 6 C0.34 4.35 -0.32 2.7 -1 1 C-0.67 0.67 -0.34 0.34 0 0 Z " fill="#DCFBBF" transform="translate(161,111)"/>
</svg>
